# xmcd CD database file
#
# Track frame offsets:
#	150
#	19815
#	43053
#	70418
#	85523
#	102118
#	124437
#	145165
#	170060
#	184438
#	202713
#	221418
#	243450
#	265235
#	292540
#
# Disc length: 4097 seconds
#
# Revision: 0
# Processed by: cddbd v1.5.1PL2 Copyright (c) Steve Scherf et al.
# Submitted via: CDex 1.60beta1
#
DISCID=d80fff0f
DTITLE=Chris Botti - When I Fall In Love [CD+DVD/Repackage)
DYEAR=2005
DGENRE=Jazz
TTITLE0=When I Fall In Love
TTITLE1=What'll I Do? (Featuring Paula Cole)
TTITLE2=No Ordinary Love
TTITLE3=My Romance
TTITLE4=Let's Fall In Love
TTITLE5=Cinema Paradiso (Featuring Billy Childs)
TTITLE6=Someone To Watch Over Me
TTITLE7=La Belle Dame Sans Regrets (Featuring Billy Childs, Dominic Miller And String)
TTITLE8=Nearness Of You
TTITLE9=How Love Should Be (Featuring Paula Cole)
TTITLE10=Make Someone Happy
TTITLE11=One For My Baby
TTITLE12=Time To Say Goodbye (Con Te Partrio)
TTITLE13=You Don't Know What Love Is (Bonus Track)
TTITLE14=But Beautiful (Bonus Track)
EXTD=YEAR: 2005
EXTT0=
EXTT1=
EXTT2=
EXTT3=
EXTT4=
EXTT5=
EXTT6=
EXTT7=
EXTT8=
EXTT9=
EXTT10=
EXTT11=
EXTT12=
EXTT13=
EXTT14=
PLAYORDER=
